<?xml version="1.0" encoding="UTF-8"?>
<svg id="Layer_1" data-name="Layer 1" xmlns="http://www.w3.org/2000/svg" viewBox="0 0 245.99 95.87">
  <defs>
    <style>
      .cls-1 {
        fill: #a07400;
      }

      .cls-2 {
        fill: #fff;
      }

      .cls-3 {
        fill: #002554;
      }
    </style>
  </defs>
  <path class="cls-1" d="M15.84,0L0,15.93v64.12l15.84,15.81h42.14l15.84-15.84v-19.75h-29.28v7.85l-1.69,1.7h-13.51l-1.78-1.71V24.74h15.28s1.7,1.78,1.7,1.78v9.75h29.28V15.91L57.98,0H15.84h0ZM80.57,0v24.75h5.34v46.38h-5.34v24.75h59.57l15.84-15.84v-28.57l-5.22-5.24,5.22-5.21V15.92L140.14,0h-59.57,0ZM162.63,0v24.75h5.89v55.31l15.86,15.81h39.88l15.84-15.9V24.75h5.89V0h-38.81v24.75h5.89v43.39l-1.69,1.69h-14.07l-1.78-1.71V24.75h5.89V0h-38.81,0ZM113.49,24.75h13.12l1.79,1.79v5.65l-1.79,1.78h-13.12v-9.21ZM113.49,58.71h13.14l1.78,1.71v8.12l-1.78,1.71h-13.14v-11.54Z"/>
  <path class="cls-2" d="M16.79,2.25L2.27,16.87v62.25l14.52,14.5h40.26l14.53-14.52v-16.57h-24.76v6.54l-3.01,3.01h-15.35l-3.13-3V22.49h18.48l3.01,3.1v8.4h24.76v-17.15l-14.53-14.59H16.79h0ZM82.83,2.25v20.24h5.34v50.88h-5.34v20.24h56.38l14.53-14.52v-26.71l-6.18-6.16,6.18-6.15v-23.23l-14.53-14.59h-56.38ZM164.89,2.25v20.24h5.91v56.62l14.52,14.5h38.01l14.52-14.58V22.49h5.91V2.25h-34.31v20.24h5.91v46.57l-3.01,3.01h-15.92l-3.13-3V22.49h5.91V2.25h-34.31ZM111.23,22.68h16.32l3.11,3.09v7.54l-3.11,3.09h-16.32v-13.72h0ZM111.23,56.45h16.32l3.11,3.01v10.04l-3.11,3.01h-16.32v-16.06h0Z"/>
  <path class="cls-3" d="M56.11,4.51H17.72s-13.2,13.29-13.2,13.29v60.38l13.2,13.19h38.4l13.19-13.2v-13.37h-20.24v5.21l-4.34,4.32h-17.19l-4.47-4.3V22.47l-7.2-2.23h28.88s4.31,4.44,4.31,4.44v7.06h20.24v-13.97l-13.2-13.27h0ZM167.14,4.51v15.73h5.91v57.96l13.2,13.18h36.14l13.2-13.27V20.23h5.91V4.51h-29.8v15.73h5.91v49.78l-4.34,4.32h-17.76l-4.46-4.3V22.47l-6.44-2.23h12.33s.01-.01.01-.01V4.51h-29.8,0ZM85.09,4.51v15.72h5.33v55.41h-5.33v15.72h53.19l13.2-13.2v-24.84h-.01l-7.1-7.1,7.1-7.09h.01v-21.35l-13.22-13.28h-53.17ZM128.47,20.23l4.45,4.41v9.42l-4.45,4.41h-19.5v-16.01l-6.87-2.23h26.37s0-.01,0-.01ZM108.97,54.21h19.47l4.48,4.3v11.95h0s-4.48,4.31-4.48,4.31h-19.47v-20.56h0Z"/>
</svg>