<?xml version="1.0" encoding="UTF-8"?>
<svg id="Layer_1" xmlns="http://www.w3.org/2000/svg" viewBox="0 0 229.75 224.87">
  <defs>
    <style>
      .cls-1 {
        fill: #bcbbba;
      }

      .cls-2 {
        fill: #fff;
      }

      .cls-3 {
        fill: #db1e25;
      }
    </style>
  </defs>
  <path class="cls-1" d="M218.2,26.77C208.48,14.56,188.34,0,147.53,0c-27.79,0-57.54,7.71-81.63,21.14-25.26,14.08-41.64,32.57-46.14,52.04L1.42,152.61c-3.73,16.13-.03,32.72,10.13,45.49,9.71,12.21,29.86,26.77,70.67,26.77,27.79,0,57.54-7.71,81.63-21.14,25.26-14.08,41.64-32.57,46.14-52.04l18.34-79.43c3.72-16.13.03-32.72-10.13-45.49ZM143.59,66.33c1.08,1.36,1.25,3.69.5,6.92l-17.42,75.44c-1.55,6.71-5.71,13.57-24.8,13.57-11.1,0-14.61-2.33-15.71-3.72-1.08-1.35-1.25-3.68-.5-6.92l17.41-75.44c1.55-6.71,5.71-13.57,24.8-13.57,11.1,0,14.61,2.33,15.71,3.72h0Z"/>
  <path class="cls-2" d="M17,156.21l18.35-79.44c5.2-22.53,27.45-34.51,27.45-34.51l-26.85,116.28c-3.75,16.28,8.07,32.56,49.33,32.56,27.07,0,52.35-7.53,56.59-25.88l21.68-93.9c6.42-27.78-40.35-25.41-49.84-24.28,18.77-7.59,76.95-8.51,70.54,19.31l-23.1,100.04c-7.95,34.44-48.51,42.49-78.92,42.49-51.27,0-71.22-26.69-65.22-52.67M127.87,56.11c14.83,0,25.97,3.78,22.55,18.61l-17.42,75.44c-3.42,14.82-16.32,18.61-31.13,18.61s-25.97-3.78-22.54-18.61l17.41-75.44c3.42-14.83,16.31-18.61,31.13-18.61M147.53,15.99c51.27,0,71.22,26.68,65.22,52.67l-18.34,79.44c-5.2,22.53-27.45,34.51-27.45,34.51l26.85-116.28c3.76-16.28-8.06-32.56-49.33-32.56-27.07,0-52.35,7.54-56.59,25.88l-21.68,93.9c-6.42,27.78,40.35,25.41,49.84,24.28-18.77,7.6-76.95,8.51-70.53-19.3l23.1-100.04c7.95-34.44,48.51-42.49,78.91-42.49M82.22,218.38c55.79,0,112.97-31.46,121.44-68.14l18.34-79.43c6.54-28.35-11.83-64.3-74.47-64.3-55.79,0-112.97,31.46-121.44,68.14L7.75,154.08c-6.55,28.35,11.83,64.3,74.47,64.3"/>
  <path class="cls-1" d="M185.1,201.38h-1.42v-1.32h1.42c.36,0,.66.3.66.66s-.3.66-.66.66M186.9,200.72c0-.99-.8-1.8-1.79-1.8h-2.55v6.05h1.13v-2.46h.82l1.14,2.46h1.25l-1.19-2.56c.69-.25,1.19-.91,1.19-1.69"/>
  <path class="cls-1" d="M184.72,206.11c-2.3,0-4.16-1.87-4.16-4.16s1.86-4.16,4.16-4.16,4.16,1.86,4.16,4.16-1.86,4.16-4.16,4.16M184.72,196.65c-2.93,0-5.3,2.37-5.3,5.3s2.37,5.3,5.3,5.3,5.3-2.37,5.3-5.3-2.37-5.3-5.3-5.3"/>
  <path class="cls-3" d="M147.53,15.99c-30.4,0-70.96,8.04-78.92,42.49l-23.09,100.04c-6.42,27.81,51.76,26.9,70.53,19.3-9.49,1.14-56.26,3.5-49.84-24.28l21.68-93.9c4.23-18.34,29.52-25.88,56.59-25.88,41.26,0,53.09,16.28,49.33,32.56l-26.85,116.28s22.25-11.98,27.45-34.51l18.34-79.44c6-25.99-13.95-52.67-65.22-52.67"/>
  <path d="M82.22,208.88c30.41,0,70.97-8.05,78.92-42.49l23.1-100.03c6.42-27.82-51.76-26.9-70.53-19.31,9.49-1.14,56.26-3.5,49.84,24.28l-21.68,93.9c-4.23,18.34-29.51,25.88-56.59,25.88-41.25,0-53.08-16.28-49.32-32.57l26.84-116.28s-22.24,11.98-27.45,34.51l-18.34,79.44c-6,25.99,13.95,52.67,65.22,52.67"/>
</svg>